<?xml version="1.0" encoding="UTF-8"?>
<svg version="1.1" xmlns="http://www.w3.org/2000/svg" width="500" height="500">
<path d="M0 0 C-0.5859375 6.15234375 -0.5859375 6.15234375 -1 8 C-4.21451269 9.60725635 -7.43612536 9.05748185 -11 9 C-10.505 14.445 -10.505 14.445 -10 20 C-6.7 20 -3.4 20 0 20 C0 23.3 0 26.6 0 30 C-2.31 30 -4.62 30 -7 30 C-7 42.54 -7 55.08 -7 68 C-10.63 68 -14.26 68 -18 68 C-18 65.36 -18 62.72 -18 60 C-19.485 60.495 -19.485 60.495 -21 61 C-28.02285092 62.96809733 -33.48062923 62.51043042 -40 59 C-42.88864592 56.49143907 -44.84379017 54.69727994 -45.203125 50.79296875 C-45.36467823 41.81330199 -45.36467823 41.81330199 -42 38 C-37.11584206 34.25894285 -33.50816072 32.85445631 -27.4375 32.875 C-26.29087891 32.87113281 -26.29087891 32.87113281 -25.12109375 32.8671875 C-23 33 -23 33 -20 34 C-20 36.97 -20 39.94 -20 43 C-24.29 43.33 -28.58 43.66 -33 44 C-33 45.98 -33 47.96 -33 50 C-31.16489032 51.83510968 -28.64853236 51.23478884 -26.203125 51.328125 C-22.98799459 50.84927579 -21.44154375 50.19947617 -19 48 C-18.2261839 44.94408219 -18.21051758 41.95315152 -18.1875 38.8125 C-18.125625 35.904375 -18.06375 32.99625 -18 30 C-29.55 30 -41.1 30 -53 30 C-53 42.54 -53 55.08 -53 68 C-56.63 68 -60.26 68 -64 68 C-64 62.39 -64 56.78 -64 51 C-65.588125 51.20625 -67.17625 51.4125 -68.8125 51.625 C-74.82717767 52.19522269 -80.14864836 51.36946528 -86 50 C-85.48050781 50.51949219 -84.96101563 51.03898437 -84.42578125 51.57421875 C-80.6171875 55.3828125 -76.80859375 59.19140625 -73 63 C-74.98 65.31 -76.96 67.62 -79 70 C-82.36036274 68.31981863 -83.9841724 67.2715802 -86.53125 64.734375 C-87.17707031 64.09113281 -87.82289063 63.44789063 -88.48828125 62.78515625 C-89.15214844 62.11355469 -89.81601563 61.44195312 -90.5 60.75 C-91.16386719 60.09386719 -91.82773438 59.43773437 -92.51171875 58.76171875 C-101.6988974 49.53786473 -101.6988974 49.53786473 -102.4375 43.3125 C-102 40 -102 40 -100.9375 38.0625 C-97.94507644 36.42149353 -95.3453492 36.76104649 -92 37 C-91.01 37.33 -90.02 37.66 -89 38 C-89 35.36 -89 32.72 -89 30 C-93.95 30 -98.9 30 -104 30 C-104 26.7 -104 23.4 -104 20 C-76.61 20 -49.22 20 -21 20 C-21.99 17.525 -21.99 17.525 -23 15 C-23.58139391 11.0132989 -23.36119599 7.83075078 -21.75 4.125 C-19.2163937 1.04847807 -17.17498304 0.30773365 -13.375 -0.6875 C-8.82873708 -1.10845027 -4.51488557 -0.57997542 0 0 Z M-78 30 C-78.33 33.96 -78.66 37.92 -79 42 C-76.87506859 42.02693575 -74.75004088 42.04636628 -72.625 42.0625 C-70.84996094 42.07990234 -70.84996094 42.07990234 -69.0390625 42.09765625 C-66.08078479 42.21466593 -66.08078479 42.21466593 -64 41 C-64 37.37 -64 33.74 -64 30 C-68.62 30 -73.24 30 -78 30 Z " fill="#2567C0" transform="translate(279,190)"/>
<path d="M0 0 C1.93166016 0.01740234 1.93166016 0.01740234 3.90234375 0.03515625 C5.19269531 0.04417969 6.48304688 0.05320313 7.8125 0.0625 C8.81152344 0.07410156 9.81054688 0.08570313 10.83984375 0.09765625 C12.41201383 6.72153508 13.49700476 13.28744583 14.34765625 20.0390625 C14.54317581 21.55148781 14.54317581 21.55148781 14.74264526 23.09446716 C15.15389593 26.28254901 15.55946119 29.4713235 15.96484375 32.66015625 C16.24441471 34.83533494 16.52435897 37.01046569 16.8046875 39.18554688 C17.48738951 44.48903886 18.1649972 49.79315921 18.83984375 55.09765625 C14.87984375 55.09765625 10.91984375 55.09765625 6.83984375 55.09765625 C5.83984375 53.09765625 5.83984375 53.09765625 4.83984375 44.09765625 C-1.76015625 43.76765625 -8.36015625 43.43765625 -15.16015625 43.09765625 C-15.82015625 45.07765625 -16.48015625 47.05765625 -17.16015625 49.09765625 C-18.53515625 52.47265625 -18.53515625 52.47265625 -21.16015625 55.09765625 C-25.20502137 55.61539899 -29.10496851 55.44196464 -33.16015625 55.09765625 C-31.8673403 50.87864463 -30.26166807 47.19007342 -28.10546875 43.34375 C-27.49590332 42.2511084 -26.88633789 41.1584668 -26.25830078 40.03271484 C-25.60079106 38.86674628 -24.94307197 37.70089577 -24.28515625 36.53515625 C-23.61278526 35.33563594 -22.94075079 34.13592695 -22.26904297 32.93603516 C-20.24106297 29.31852781 -18.20192624 25.70739379 -16.16015625 22.09765625 C-15.23783203 20.46546143 -15.23783203 20.46546143 -14.296875 18.80029297 C-12.63023221 15.85549036 -10.95944001 12.91312034 -9.28515625 9.97265625 C-8.78000488 9.08505615 -8.27485352 8.19745605 -7.75439453 7.28295898 C-7.29274902 6.47673096 -6.83110352 5.67050293 -6.35546875 4.83984375 C-5.95344238 4.13714355 -5.55141602 3.43444336 -5.13720703 2.71044922 C-3.46398675 -0.0514931 -3.55983207 0.11000717 0 0 Z M0.83984375 13.09765625 C-0.83013321 16.24174319 -2.4955799 19.38820719 -4.16015625 22.53515625 C-4.63710938 23.43298828 -5.1140625 24.33082031 -5.60546875 25.25585938 C-6.05664062 26.10986328 -6.5078125 26.96386719 -6.97265625 27.84375 C-7.60107422 29.02988892 -7.60107422 29.02988892 -8.2421875 30.23999023 C-9.23399195 31.9017257 -9.23399195 31.9017257 -9.16015625 33.09765625 C-4.87015625 33.09765625 -0.58015625 33.09765625 3.83984375 33.09765625 C3.69818482 30.7015105 3.55165534 28.30582728 3.40234375 25.91015625 C3.36302734 25.23662109 3.32371094 24.56308594 3.28320312 23.86914062 C3.0505681 20.20066523 2.66777364 16.68071419 1.83984375 13.09765625 C1.50984375 13.09765625 1.17984375 13.09765625 0.83984375 13.09765625 Z " fill="#2367C1" transform="translate(328.16015625,202.90234375)"/>
<path d="M0 0 C2.93026338 2.08662707 5.48264781 4.43578222 8 7 C4.52892531 14.45348401 -1.95421054 20.2911315 -7.5625 26.1875 C-8.23017395 26.88951538 -8.8978479 27.59153076 -9.58575439 28.31481934 C-23.46930844 42.60967953 -23.46930844 42.60967953 -34.64648438 42.95068359 C-37.7600825 42.75714324 -40.85325659 42.47947898 -43.95703125 42.16796875 C-48.0570431 41.77780993 -48.68619863 41.79460945 -52.32421875 44.17578125 C-54.30755815 46.73370064 -55.78896039 49.00770033 -57 52 C-60.45929712 51.35745987 -62.84190364 49.98899952 -65.765625 48.05859375 C-66.65507813 47.47529297 -67.54453125 46.89199219 -68.4609375 46.29101562 C-69.38132812 45.67935547 -70.30171875 45.06769531 -71.25 44.4375 C-72.18585938 43.82197266 -73.12171875 43.20644531 -74.0859375 42.57226562 C-76.39399678 41.05318579 -78.69847801 39.52895875 -81 38 C-78.92249716 32.31678878 -75.58897642 27.79229443 -72.125 22.875 C-71.49980469 21.96878906 -70.87460938 21.06257813 -70.23046875 20.12890625 C-69.62074219 19.25878906 -69.01101562 18.38867188 -68.3828125 17.4921875 C-67.82996582 16.70183105 -67.27711914 15.91147461 -66.70751953 15.09716797 C-63.96081089 11.72367251 -61.35422646 9.60922561 -57 9 C-54.24658234 8.93061179 -51.51434179 8.91085063 -48.76171875 8.9296875 C-47.12043211 8.92110223 -45.47915447 8.91062592 -43.83789062 8.8984375 C-41.26338994 8.88176296 -38.69090853 8.87496634 -36.11645508 8.90039062 C-26.37028599 9.33906466 -26.37028599 9.33906466 -17.35766602 6.43652344 C-15.65362989 4.71050118 -14.35223221 3.00222969 -13 1 C-8.85513594 -1.55068558 -4.55115955 -1.6141224 0 0 Z M-17.4375 14.9375 C-26.61509239 24.94959297 -26.61509239 24.94959297 -33.97290039 25.62329102 C-37.0440709 25.62572984 -39.95792424 25.43931884 -43 25 C-42.67 23.35 -42.34 21.7 -42 20 C-40.73542969 19.96132812 -40.73542969 19.96132812 -39.4453125 19.921875 C-38.34960938 19.86515625 -37.25390625 19.8084375 -36.125 19.75 C-35.03445312 19.70359375 -33.94390625 19.6571875 -32.8203125 19.609375 C-31.88960937 19.40828125 -30.95890625 19.2071875 -30 19 C-28.79828693 17.0163762 -28.79828693 17.0163762 -28 15 C-32.56237931 14.91280369 -37.12454386 14.85954078 -41.6875 14.8125 C-42.98107422 14.78736328 -44.27464844 14.76222656 -45.60742188 14.73632812 C-46.85458984 14.72666016 -48.10175781 14.71699219 -49.38671875 14.70703125 C-50.53358154 14.6913208 -51.68044434 14.67561035 -52.86206055 14.65942383 C-56.37648329 15.0408616 -58.1846206 15.90077286 -61 18 C-63.20078318 20.77743849 -63.20078318 20.77743849 -65.125 23.9375 C-68.92254989 29.89980109 -68.92254989 29.89980109 -70.7421875 32.25390625 C-72.194832 33.91180539 -72.194832 33.91180539 -72 36 C-70.02559073 37.4631783 -68.06761129 38.80713064 -66 40.125 C-65.42765625 40.49753906 -64.8553125 40.87007813 -64.265625 41.25390625 C-62.84778218 42.17550408 -61.42439275 43.08855821 -60 44 C-59.236875 43.236875 -58.47375 42.47375 -57.6875 41.6875 C-56.800625 40.800625 -55.91375 39.91375 -55 39 C-54.54955322 38.44127197 -54.09910645 37.88254395 -53.63500977 37.30688477 C-52 36 -52 36 -49.77709961 35.98022461 C-48.91093018 36.11952393 -48.04476074 36.25882324 -47.15234375 36.40234375 C-38.61927912 37.25488342 -30.43621608 37.84783765 -23.27734375 32.4140625 C-15.04153529 25.47573917 -7.90862845 17.23085399 -1 9 C-1.495 7.515 -1.495 7.515 -2 6 C-9.91157499 4.51333085 -12.58499681 9.31640956 -17.4375 14.9375 Z " fill="#2A67B8" transform="translate(151,235)"/>
<path d="M0 0 C1.98 0 3.96 0 6 0 C6.33 1.65 6.66 3.3 7 5 C11.05431692 6.15837626 13.21812119 5.83691257 17 4 C17.99 4.99 18.98 5.98 20 7 C19 9 18 11 17 13 C17.27942455 14.67654729 17.60828247 16.34608154 18 18 C19.98 18 21.96 18 24 18 C24 19.98 24 21.96 24 24 C22.02 24 20.04 24 18 24 C17.22573891 26.80764728 17.22573891 26.80764728 17 30 C18.31135412 32.36290685 18.31135412 32.36290685 20 34 C18.68 35.32 17.36 36.64 16 38 C15.278125 37.484375 14.55625 36.96875 13.8125 36.4375 C10.5804634 34.78557018 9.38391693 34.93648325 6 36 C6 37.98 6 39.96 6 42 C4.02 42 2.04 42 0 42 C0 40.02 0 38.04 0 36 C-2.85078091 35.23283149 -2.85078091 35.23283149 -6 35 C-7.89958081 36.31318262 -7.89958081 36.31318262 -9 38 C-10.9375 37.25 -10.9375 37.25 -13 36 C-13.75 33.875 -13.75 33.875 -14 32 C-13.34 32 -12.68 32 -12 32 C-12.33 29.69 -12.66 27.38 -13 25 C-14.98 24.67 -16.96 24.34 -19 24 C-19 22.02 -19 20.04 -19 18 C-17.02 17.67 -15.04 17.34 -13 17 C-11.9910966 12.76353233 -11.9910966 12.76353233 -12.9375 8.625 C-13.288125 8.08875 -13.63875 7.5525 -14 7 C-13.01 6.01 -12.02 5.02 -11 4 C-10.46375 4.350625 -9.9275 4.70125 -9.375 5.0625 C-6.26725237 6.28924249 -4.20568297 5.72856431 -1 5 C-0.67 3.35 -0.34 1.7 0 0 Z M-6 17 C-7.42001879 20.4612958 -7.12942622 21.66996314 -5.75 25.1875 C-4.14189118 28.20397879 -4.14189118 28.20397879 -1 30 C3.90487343 30.55377603 5.89979388 30.75639171 10 27.9375 C12.54356454 24.20163958 12.77894903 22.44000949 12 18 C10.12606223 14.77916945 8.78819693 12.504733 5.0625 11.453125 C-0.22326758 11.09273176 -2.81571594 12.65779446 -6 17 Z " fill="#2766BB" transform="translate(112,194)"/>
<path d="M0 0 C3.96 0 7.92 0 12 0 C9.39365636 13.88512275 6.68813508 27.74377571 3.75 41.5625 C3.49202637 42.78678711 3.23405273 44.01107422 2.96826172 45.27246094 C2.7260791 46.40071289 2.48389648 47.52896484 2.234375 48.69140625 C2.02006836 49.69373291 1.80576172 50.69605957 1.58496094 51.72875977 C1 54 1 54 0 55 C-1.85287502 55.07226502 -3.70833878 55.0838122 -5.5625 55.0625 C-6.57441406 55.05347656 -7.58632813 55.04445313 -8.62890625 55.03515625 C-9.41136719 55.02355469 -10.19382812 55.01195312 -11 55 C-10.45230721 48.18305116 -9.43654082 41.61752628 -7.96875 34.94140625 C-7.77277222 34.03043686 -7.57679443 33.11946747 -7.37487793 32.18089294 C-6.96391309 30.2753943 -6.55035156 28.37045396 -6.13427734 26.46606445 C-5.49660002 23.54693572 -4.86676831 20.62619796 -4.23828125 17.70507812 C-3.83638694 15.84625694 -3.43405882 13.98752948 -3.03125 12.12890625 C-2.84268433 11.25706192 -2.65411865 10.38521759 -2.45983887 9.48695374 C-2.28295532 8.67858566 -2.10607178 7.87021759 -1.92382812 7.03735352 C-1.76918091 6.32805191 -1.61453369 5.61875031 -1.4552002 4.88795471 C-1 3 -1 3 0 0 Z " fill="#2468C1" transform="translate(365,203)"/>
<path d="M0 0 C0.66 0 1.32 0 2 0 C2 0.99 2 1.98 2 3 C3.32 3.33 4.64 3.66 6 4 C6 5.98 6 7.96 6 10 C5.34 10 4.68 10 4 10 C4 8.68 4 7.36 4 6 C3.34 6 2.68 6 2 6 C2 7.32 2 8.64 2 10 C0.20866022 10.05391993 -1.58313899 10.09275571 -3.375 10.125 C-4.37273437 10.14820313 -5.37046875 10.17140625 -6.3984375 10.1953125 C-9 10 -9 10 -11 8 C-11.99 9.65 -12.98 11.3 -14 13 C-15.32 12.67 -16.64 12.34 -18 12 C-17.01 11.67 -16.02 11.34 -15 11 C-16.3089572 7.87802522 -16.3089572 7.87802522 -19 6 C-19 7.32 -19 8.64 -19 10 C-24.37305699 10.96891192 -24.37305699 10.96891192 -27 11 C-29 9.5625 -29 9.5625 -30 8 C-30.33 8.66 -30.66 9.32 -31 10 C-31.78375 9.79375 -32.5675 9.5875 -33.375 9.375 C-34.24125 9.25125 -35.1075 9.1275 -36 9 C-36.66 9.66 -37.32 10.32 -38 11 C-41.53571429 10.46428571 -41.53571429 10.46428571 -43 9 C-43.125 6.5 -43.125 6.5 -43 4 C-42 3 -42 3 -40.15234375 2.90234375 C-38.1015625 2.93489583 -36.05078125 2.96744792 -34 3 C-33.67 3.66 -33.34 4.32 -33 5 C-32.67 4.34 -32.34 3.68 -32 3 C-21.66666667 3 -11.33333333 3 -1 3 C-0.67 2.01 -0.34 1.02 0 0 Z " fill="#2A65AF" transform="translate(286,262)"/>
<path d="M0 0 C0.99 0.33 1.98 0.66 3 1 C2.76023438 1.57878906 2.52046875 2.15757812 2.2734375 2.75390625 C1.72394156 5.10515914 1.72394156 5.10515914 3.4765625 6.96484375 C4.54003906 7.94130859 4.54003906 7.94130859 5.625 8.9375 C6.35976562 9.62714844 7.09453125 10.31679687 7.8515625 11.02734375 C8.91503906 12.00380859 8.91503906 12.00380859 10 13 C11.00594161 13.99402287 12.00719915 14.99285231 13 16 C13.66 16.66 14.32 17.32 15 18 C12.03 21.465 12.03 21.465 9 25 C5.15718264 23.07859132 3.19568073 21.4073184 0.25 18.375 C-0.54921875 17.55773437 -1.3484375 16.74046875 -2.171875 15.8984375 C-2.77515625 15.27195313 -3.3784375 14.64546875 -4 14 C-2.68 13.67 -1.36 13.34 0 13 C0 12.34 0 11.68 0 11 C0.99 10.67 1.98 10.34 3 10 C1.68 9.34 0.36 8.68 -1 8 C-1 7.34 -1 6.68 -1 6 C-1.66 6 -2.32 6 -3 6 C-1.125 1.125 -1.125 1.125 0 0 Z " fill="#2666BB" transform="translate(191,235)"/>
<path d="M0 0 C0.99 0.33 1.98 0.66 3 1 C3 1.66 3 2.32 3 3 C3.99 3 4.98 3 6 3 C6.66 2.01 7.32 1.02 8 0 C8.66 0 9.32 0 10 0 C10 3.3 10 6.6 10 10 C8.453125 9.9690625 8.453125 9.9690625 6.875 9.9375 C3.44847031 9.99276661 0.35427586 10.34550715 -3 11 C-3.99 9.68 -4.98 8.36 -6 7 C-6.99 8.98 -7.98 10.96 -9 13 C-10.32 13 -11.64 13 -13 13 C-13 12.34 -13 11.68 -13 11 C-12.34 11 -11.68 11 -11 11 C-11.66 9.35 -12.32 7.7 -13 6 C-13.66 6 -14.32 6 -15 6 C-15 7.32 -15 8.64 -15 10 C-15.66 10 -16.32 10 -17 10 C-17 7.69 -17 5.38 -17 3 C-14.69 3 -12.38 3 -10 3 C-10 3.66 -10 4.32 -10 5 C-9.34 5 -8.68 5 -8 5 C-8 4.34 -8 3.68 -8 3 C-2.25 1.875 -2.25 1.875 0 3 C0 2.01 0 1.02 0 0 Z M-2 5 C-2 5.99 -2 6.98 -2 8 C-1.34 8 -0.68 8 0 8 C0 7.01 0 6.02 0 5 C-0.66 5 -1.32 5 -2 5 Z " fill="#2A62AA" transform="translate(215,262)"/>
<path d="M0 0 C2 2 2 2 2.4375 4.875 C2 8 2 8 -0.0625 10.4375 C-3.88147656 12.46887051 -5.88799509 12.16377498 -10 11 C-12.31282587 7.53076119 -12.42478586 6.07794425 -12 2 C-8.55398937 -2.75877658 -5.0028885 -2.02244429 0 0 Z " fill="#2B67B8" transform="translate(290,247)"/>
<path d="M0 0 C2.31 0 4.62 0 7 0 C7 0.66 7 1.32 7 2 C7.66 2 8.32 2 9 2 C9 2.66 9 3.32 9 4 C9.66 4 10.32 4 11 4 C11 3.34 11 2.68 11 2 C17.15234375 1.90234375 17.15234375 1.90234375 19 2 C20 3 20 3 20.0625 6.0625 C20.041875 7.031875 20.02125 8.00125 20 9 C18.1875 9.6875 18.1875 9.6875 16 10 C14.25 8.5625 14.25 8.5625 13 7 C12.67 7.66 12.34 8.32 12 9 C8.04 9 4.08 9 0 9 C0 6.03 0 3.06 0 0 Z M6 4 C6 4.66 6 5.32 6 6 C5.01 6.33 4.02 6.66 3 7 C4.32 7 5.64 7 7 7 C6.67 6.01 6.34 5.02 6 4 Z " fill="#3168B2" transform="translate(177,263)"/>
<path d="M0 0 C-0.33 0.99 -0.66 1.98 -1 3 C-1.66 3 -2.32 3 -3 3 C-3 3.99 -3 4.98 -3 6 C-12.24 6 -21.48 6 -31 6 C-31.33 7.65 -31.66 9.3 -32 11 C-32.66 11 -33.32 11 -34 11 C-34.33 9.68 -34.66 8.36 -35 7 C-31.22773916 2.79968119 -28.68313811 1.65208242 -23.015625 1.328125 C-20.7608256 1.27790086 -18.50535722 1.25256582 -16.25 1.25 C-13.98432282 1.21694298 -11.71868975 1.18065265 -9.453125 1.140625 C-8.45442383 1.13579102 -7.45572266 1.13095703 -6.42675781 1.12597656 C-3.95705313 0.99777056 -2.42958896 0 0 0 Z " fill="#2067C4" transform="translate(130,269)"/>
<path d="M0 0 C3 0 6 0 9 0 C9.87914062 -0.01160156 10.75828125 -0.02320313 11.6640625 -0.03515625 C13.12972656 -0.04869141 13.12972656 -0.04869141 14.625 -0.0625 C16.09839844 -0.07990234 16.09839844 -0.07990234 17.6015625 -0.09765625 C20 0 20 0 21 1 C21.1875 3.4375 21.1875 3.4375 21 6 C20.34 6.66 19.68 7.32 19 8 C17.328451 7.69208308 15.66194453 7.35613097 14 7 C13.38125 7.165 12.7625 7.33 12.125 7.5 C8.96978394 8.24240378 6.16966505 7.51867246 3 7 C2.01 7 1.02 7 0 7 C0 4.69 0 2.38 0 0 Z M10 3 C10 3.66 10 4.32 10 5 C11.32 5 12.64 5 14 5 C14 4.34 14 3.68 14 3 C12.68 3 11.36 3 10 3 Z " fill="#3262A7" transform="translate(354,265)"/>
<path d="M0 0 C2.05078125 0.03255208 4.1015625 0.06510417 6.15234375 0.09765625 C6.48234375 0.75765625 6.81234375 1.41765625 7.15234375 2.09765625 C7.48234375 1.43765625 7.81234375 0.77765625 8.15234375 0.09765625 C10.79234375 0.09765625 13.43234375 0.09765625 16.15234375 0.09765625 C16.15234375 2.73765625 16.15234375 5.37765625 16.15234375 8.09765625 C13.71484375 7.72265625 13.71484375 7.72265625 11.15234375 7.09765625 C10.82234375 6.43765625 10.49234375 5.77765625 10.15234375 5.09765625 C9.82234375 5.75765625 9.49234375 6.41765625 9.15234375 7.09765625 C7.97671875 6.78828125 7.97671875 6.78828125 6.77734375 6.47265625 C5.47796875 6.28703125 5.47796875 6.28703125 4.15234375 6.09765625 C3.49234375 6.75765625 2.83234375 7.41765625 2.15234375 8.09765625 C-1.38337054 7.56194196 -1.38337054 7.56194196 -2.84765625 6.09765625 C-2.97265625 3.59765625 -2.97265625 3.59765625 -2.84765625 1.09765625 C-1.84765625 0.09765625 -1.84765625 0.09765625 0 0 Z " fill="#346EB3" transform="translate(245.84765625,264.90234375)"/>
<path d="M0 0 C1.48831242 0.00667405 2.97660807 0.01863442 4.46484375 0.03515625 C5.22345703 0.03966797 5.98207031 0.04417969 6.76367188 0.04882812 C8.64326246 0.06064945 10.52281274 0.07858547 12.40234375 0.09765625 C13.45703125 1.95703125 13.45703125 1.95703125 14.40234375 4.09765625 C13.52734375 6.34765625 13.52734375 6.34765625 12.40234375 8.09765625 C10.75234375 7.76765625 9.10234375 7.43765625 7.40234375 7.09765625 C7.40234375 5.77765625 7.40234375 4.45765625 7.40234375 3.09765625 C6.74234375 3.09765625 6.08234375 3.09765625 5.40234375 3.09765625 C5.40234375 4.41765625 5.40234375 5.73765625 5.40234375 7.09765625 C-0.65234375 8.07421875 -0.65234375 8.07421875 -2.59765625 8.09765625 C-4.59765625 6.09765625 -4.59765625 6.09765625 -4.78515625 3.53515625 C-4.4853553 -0.36225607 -4.08606351 0.11091378 0 0 Z " fill="#3064AA" transform="translate(297.59765625,264.90234375)"/>
<path d="M0 0 C5.28 0 10.56 0 16 0 C14 6 14 6 12.203125 7.3671875 C9.61773692 8.10979897 7.43699629 8.19571043 4.75 8.125 C3.85796875 8.10695312 2.9659375 8.08890625 2.046875 8.0703125 C1.03367188 8.03550781 1.03367188 8.03550781 0 8 C0 5.36 0 2.72 0 0 Z " fill="#2167C5" transform="translate(176,211)"/>
<path d="M0 0 C0.02688151 1.64574566 0.04634123 3.29161413 0.0625 4.9375 C0.07410156 5.85402344 0.08570313 6.77054687 0.09765625 7.71484375 C0 10 0 10 -1 11 C-2.99958364 11.04080783 -5.00045254 11.04254356 -7 11 C-7 10.01 -7 9.02 -7 8 C-9.31 8 -11.62 8 -14 8 C-14 5.69 -14 3.38 -14 1 C-11.33333333 1 -8.66666667 1 -6 1 C-3 0 -3 0 0 0 Z M-7 4 C-6 6 -6 6 -6 6 Z " fill="#2E65AC" transform="translate(240,264)"/>
<path d="M0 0 C1.93166016 0.01740234 1.93166016 0.01740234 3.90234375 0.03515625 C5.19269531 0.04417969 6.48304688 0.05320313 7.8125 0.0625 C8.81152344 0.07410156 9.81054688 0.08570313 10.83984375 0.09765625 C12.1028971 5.17242419 13.11020459 9.82561979 12.83984375 15.09765625 C12.17984375 14.76765625 11.51984375 14.43765625 10.83984375 14.09765625 C10.83984375 10.46765625 10.83984375 6.83765625 10.83984375 3.09765625 C9.51984375 3.09765625 8.19984375 3.09765625 6.83984375 3.09765625 C6.83984375 3.75765625 6.83984375 4.41765625 6.83984375 5.09765625 C4.52984375 5.75765625 2.21984375 6.41765625 -0.16015625 7.09765625 C0.16984375 5.77765625 0.49984375 4.45765625 0.83984375 3.09765625 C-0.15015625 3.09765625 -1.14015625 3.09765625 -2.16015625 3.09765625 C-2.49015625 4.08765625 -2.82015625 5.07765625 -3.16015625 6.09765625 C-4.15015625 7.58265625 -4.15015625 7.58265625 -5.16015625 9.09765625 C-5.82015625 9.09765625 -6.48015625 9.09765625 -7.16015625 9.09765625 C-7.56234375 10.24234375 -7.56234375 10.24234375 -7.97265625 11.41015625 C-9.10439737 13.97146509 -10.07239026 15.29458563 -12.16015625 17.09765625 C-10.60883711 11.20264351 -6.86526554 0.21215283 0 0 Z " fill="#2B67B8" transform="translate(328.16015625,202.90234375)"/>
<path d="M0 0 C0.556875 0.391875 1.11375 0.78375 1.6875 1.1875 C1.6875 5.1875 1.6875 5.1875 -0.3125 8.1875 C-0.0003236 10.83382287 -0.0003236 10.83382287 0.6875 13.1875 C2.6675 13.1875 4.6475 13.1875 6.6875 13.1875 C6.6875 15.1675 6.6875 17.1475 6.6875 19.1875 C4.7075 19.1875 2.7275 19.1875 0.6875 19.1875 C0.6875 18.5275 0.6875 17.8675 0.6875 17.1875 C0.0275 17.1875 -0.6325 17.1875 -1.3125 17.1875 C-1.6425 18.1775 -1.9725 19.1675 -2.3125 20.1875 C-3.69208057 16.35533176 -2.94736839 13.13779223 -2.3125 9.1875 C-2.3125 7.8675 -2.3125 6.5475 -2.3125 5.1875 C-1.6525 5.1875 -0.9925 5.1875 -0.3125 5.1875 C-0.3125 4.1975 -0.3125 3.2075 -0.3125 2.1875 C-1.3025 2.8475 -2.2925 3.5075 -3.3125 4.1875 C-4.3025 4.1875 -5.2925 4.1875 -6.3125 4.1875 C-6.6425 5.1775 -6.9725 6.1675 -7.3125 7.1875 C-7.625 4.875 -7.625 4.875 -7.3125 2.1875 C-3.38928019 -1.19082817 -3.38928019 -1.19082817 0 0 Z " fill="#2A66B9" transform="translate(129.3125,198.8125)"/>
<path d="M0 0 C2 0 4 0 6 0 C6.33 3.63 6.66 7.26 7 11 C5.68 11 4.36 11 3 11 C1.84951172 11.01740234 1.84951172 11.01740234 0.67578125 11.03515625 C-0.10410156 11.04417969 -0.88398438 11.05320312 -1.6875 11.0625 C-2.47511719 11.07410156 -3.26273437 11.08570313 -4.07421875 11.09765625 C-6 11 -6 11 -7 10 C-7.04080783 8.00041636 -7.04254356 5.99954746 -7 4 C-5.34385343 3.61781233 -3.67542976 3.28604898 -2 3 C-1.67 3.33 -1.34 3.66 -1 4 C-0.67 2.68 -0.34 1.36 0 0 Z " fill="#3169B1" transform="translate(322,262)"/>
<path d="M0 0 C0.33 0 0.66 0 1 0 C1 2.97 1 5.94 1 9 C0.28972656 8.98839844 -0.42054688 8.97679687 -1.15234375 8.96484375 C-2.07144531 8.95582031 -2.99054688 8.94679687 -3.9375 8.9375 C-5.31228516 8.92009766 -5.31228516 8.92009766 -6.71484375 8.90234375 C-8.96593327 8.74050951 -8.96593327 8.74050951 -10 10 C-9.34 10.66 -8.68 11.32 -8 12 C-8.66 12 -9.32 12 -10 12 C-9.505 12.886875 -9.01 13.77375 -8.5 14.6875 C-7.05621326 17.87586238 -6.69840078 19.58187546 -7 23 C-6.34 23 -5.68 23 -5 23 C-4.34 24.65 -3.68 26.3 -3 28 C-7.23205693 24.72977419 -10.48668002 21.83330765 -13 17 C-13.41526697 13.49989268 -13.65078429 11.1867243 -11.9375 8.0625 C-8.94507644 6.42149353 -6.3453492 6.76104649 -3 7 C-2.01 7.33 -1.02 7.66 0 8 C0 5.36 0 2.72 0 0 Z " fill="#3569B3" transform="translate(190,220)"/>
<path d="M0 0 C0.04125 0.61875 0.0825 1.2375 0.125 1.875 C0.41375 2.57625 0.7025 3.2775 1 4 C2.97746603 4.73080266 4.98072489 5.39421747 7 6 C8.875 7.5 8.875 7.5 10 9 C10 9.66 10 10.32 10 11 C10.66 11 11.32 11 12 11 C12 11.66 12 12.32 12 13 C6.8603384 13.626788 4.33893102 12.28325547 0.3203125 9.38671875 C-1 8 -1 8 -1 5 C-1.66 5 -2.32 5 -3 5 C-3 3.68 -3 2.36 -3 1 C-2.01 0.67 -1.02 0.34 0 0 Z " fill="#2767BB" transform="translate(76,268)"/>
<path d="M0 0 C0 2.66666667 0 5.33333333 0 8 C-1.64574566 8.02688151 -3.29161413 8.04634123 -4.9375 8.0625 C-5.85402344 8.07410156 -6.77054687 8.08570313 -7.71484375 8.09765625 C-10 8 -10 8 -11 7 C-11.04080783 5.00041636 -11.04254356 2.99954746 -11 1 C-9.824375 0.7834375 -9.824375 0.7834375 -8.625 0.5625 C-2.5 -0.75 -2.5 -0.75 0 0 Z M-5 2 C-4 6 -4 6 -4 6 Z " fill="#2662B4" transform="translate(343,265)"/>
<path d="M0 0 C1.65 0 3.3 0 5 0 C5 0.66 5 1.32 5 2 C5.99 2.33 6.98 2.66 8 3 C8 3.66 8 4.32 8 5 C4.7 5 1.4 5 -2 5 C-2.66 6.32 -3.32 7.64 -4 9 C-6.625 9.75 -6.625 9.75 -9 10 C-9 6 -9 6 -7.3125 3.75 C-4.60609252 1.70190785 -3.31152874 1.63205236 0 2 C0 1.34 0 0.68 0 0 Z " fill="#2367C2" transform="translate(144,235)"/>
<path d="M0 0 C0.66 0 1.32 0 2 0 C2 0.99 2 1.98 2 3 C3.32 3.33 4.64 3.66 6 4 C6 5.98 6 7.96 6 10 C5.34 10 4.68 10 4 10 C4 8.68 4 7.36 4 6 C3.34 6 2.68 6 2 6 C2 7.32 2 8.64 2 10 C-0.31 10 -2.62 10 -5 10 C-5.66 8.68 -6.32 7.36 -7 6 C-6.34 5.67 -5.68 5.34 -5 5 C-4.67 4.34 -4.34 3.68 -4 3 C-3.01 3 -2.02 3 -1 3 C-0.67 2.01 -0.34 1.02 0 0 Z " fill="#2C63B0" transform="translate(286,262)"/>
<path d="M0 0 C0.38218767 1.65614657 0.71395102 3.32457024 1 5 C-0.66342837 6.66342837 -2.7825709 6.36048097 -5.0625 6.5625 C-5.98160156 6.64628906 -6.90070313 6.73007813 -7.84765625 6.81640625 C-8.55792969 6.87699219 -9.26820313 6.93757812 -10 7 C-10 5.02 -10 3.04 -10 1 C-6.21812119 -0.83691257 -4.05431692 -1.15837626 0 0 Z " fill="#2167C6" transform="translate(276,191)"/>
<path d="M0 0 C1.65 0 3.3 0 5 0 C4.649375 0.5775 4.29875 1.155 3.9375 1.75 C2.83267452 4.40158116 3.19819904 5.32733014 4 8 C3.67 8.66 3.34 9.32 3 10 C1.02 10 -0.96 10 -3 10 C-2.979375 9.21625 -2.95875 8.4325 -2.9375 7.625 C-2.81315937 5.01885039 -2.81315937 5.01885039 -4 3 C-2.68 2.67 -1.36 2.34 0 2 C0 1.34 0 0.68 0 0 Z " fill="#2068C5" transform="translate(243,225)"/>
<path d="M0 0 C4.29 0 8.58 0 13 0 C13.33 1.32 13.66 2.64 14 4 C9.38 4 4.76 4 0 4 C0 2.68 0 1.36 0 0 Z " fill="#2067C3" transform="translate(109,255)"/>
<path d="M0 0 C0.33 0 0.66 0 1 0 C2.125 5.625 2.125 5.625 1 9 C0.01 9 -0.98 9 -2 9 C-2.144375 9.61875 -2.28875 10.2375 -2.4375 10.875 C-3 13 -3 13 -4 15 C-4.99 15 -5.98 15 -7 15 C-7 15.99 -7 16.98 -7 18 C-7.66 18 -8.32 18 -9 18 C-7.6510689 13.48548686 -5.83381706 9.67722719 -3.4375 5.625 C-2.81746094 4.56539062 -2.19742187 3.50578125 -1.55859375 2.4140625 C-0.78708984 1.21910156 -0.78708984 1.21910156 0 0 Z " fill="#2D69B5" transform="translate(310,229)"/>
<path d="M0 0 C3.96 0 7.92 0 12 0 C10.35 8.25 8.7 16.5 7 25 C6.67 25 6.34 25 6 25 C5.97311849 23.35425434 5.95365877 21.70838587 5.9375 20.0625 C5.92589844 19.14597656 5.91429687 18.22945312 5.90234375 17.28515625 C6 15 6 15 7 14 C7.23075082 12.65252916 7.41153063 11.29622435 7.5625 9.9375 C7.706875 8.638125 7.85125 7.33875 8 6 C8.66 6 9.32 6 10 6 C10 4.35 10 2.7 10 1 C6.7 1.33 3.4 1.66 0 2 C0 1.34 0 0.68 0 0 Z " fill="#3664A8" transform="translate(365,203)"/>
<path d="M0 0 C1.32 0 2.64 0 4 0 C3.4140625 6.15234375 3.4140625 6.15234375 3 8 C-0.21451269 9.60725635 -3.43612536 9.05748185 -7 9 C-6.67 12.63 -6.34 16.26 -6 20 C-6.66 20 -7.32 20 -8 20 C-10.21474076 14.95531271 -9.85072153 12.14089313 -8 7 C-3.545 6.505 -3.545 6.505 1 6 C0.67 4.02 0.34 2.04 0 0 Z " fill="#3866A3" transform="translate(275,190)"/>
<path d="M0 0 C0 3 0 3 -2 6 C-4.42675781 6.36889648 -4.42675781 6.36889648 -7.453125 6.37109375 C-8.54753906 6.38849609 -9.64195313 6.40589844 -10.76953125 6.42382812 C-13.07420685 6.43288128 -15.37890074 6.43814215 -17.68359375 6.43945312 C-24.05769161 6.54780532 -28.15076535 6.67523931 -33 11 C-31.84826645 8.53199953 -30.95216435 6.95216435 -29 5 C-26.54150391 4.74462891 -26.54150391 4.74462891 -23.4765625 4.7265625 C-22.373125 4.7059375 -21.2696875 4.6853125 -20.1328125 4.6640625 C-17.80215655 4.63810865 -15.47140202 4.61982691 -13.140625 4.609375 C-12.03460938 4.58617187 -10.92859375 4.56296875 -9.7890625 4.5390625 C-8.77537598 4.53084473 -7.76168945 4.52262695 -6.71728516 4.51416016 C-3.35120216 3.87723556 -2.15736228 2.58947777 0 0 Z " fill="#386AAC" transform="translate(128,265)"/>
<path d="M0 0 C1.65 0 3.3 0 5 0 C5.66 1.32 6.32 2.64 7 4 C5.25 6.0625 5.25 6.0625 3 8 C0.75 7.75 0.75 7.75 -1 7 C-0.67 4.69 -0.34 2.38 0 0 Z " fill="#2765BB" transform="translate(152,240)"/>
<path d="M0 0 C0 1.65 0 3.3 0 5 C0.66 5 1.32 5 2 5 C2 5.99 2 6.98 2 8 C1.01 8.495 1.01 8.495 0 9 C0 9.66 0 10.32 0 11 C0.99 11.66 1.98 12.32 3 13 C1.02 13.99 1.02 13.99 -1 15 C-2.5 13.6875 -2.5 13.6875 -4 12 C-4 11.01 -4 10.02 -4 9 C-3.34 9 -2.68 9 -2 9 C-2.33 6.36 -2.66 3.72 -3 1 C-1 0 -1 0 0 0 Z " fill="#3468AE" transform="translate(102,217)"/>
<path d="M0 0 C1.66611905 -0.042721 3.33382885 -0.04063832 5 0 C6 1 6 1 6.0625 4.0625 C6.041875 5.031875 6.02125 6.00125 6 7 C4.1875 7.625 4.1875 7.625 2 8 C1.01 7.34 0.02 6.68 -1 6 C-0.67 4.02 -0.34 2.04 0 0 Z M2 2 C2 2.99 2 3.98 2 5 C2.66 5 3.32 5 4 5 C3.67 4.01 3.34 3.02 3 2 C2.67 2 2.34 2 2 2 Z " fill="#3167A8" transform="translate(347,265)"/>
<path d="M0 0 C2.875 -0.1875 2.875 -0.1875 6 0 C6.66 0.99 7.32 1.98 8 3 C7.34 4.32 6.68 5.64 6 7 C4.02 7 2.04 7 0 7 C0 4.69 0 2.38 0 0 Z " fill="#2D62AA" transform="translate(226,265)"/>
<path d="M0 0 C0.33 0.66 0.66 1.32 1 2 C0.34 2 -0.32 2 -1 2 C-1.33 2.66 -1.66 3.32 -2 4 C-2.66 3.67 -3.32 3.34 -4 3 C-4 4.32 -4 5.64 -4 7 C-5.65 7 -7.3 7 -9 7 C-9 5.02 -9 3.04 -9 1 C-6.04335481 -0.4783226 -3.25770263 -0.06032783 0 0 Z " fill="#3168A7" transform="translate(271,265)"/>
<path d="M0 0 C-0.33 0.66 -0.66 1.32 -1 2 C0.051875 1.835 1.10375 1.67 2.1875 1.5 C5.20468796 1.10430322 7.97093972 0.90821029 11 1 C7.87593617 4.12406383 5.52487407 3.97460287 1.125 4.1875 C-2.55332053 4.1530588 -5.56709881 3.37316047 -9 2 C-5.86501708 0.14223235 -3.62528568 -0.20140476 0 0 Z " fill="#3067B2" transform="translate(249,248)"/>
<path d="M0 0 C4.62 0 9.24 0 14 0 C15.24591691 5.13940726 16.27288504 9.6787418 16 15 C15.34 14.67 14.68 14.34 14 14 C14 10.37 14 6.74 14 3 C10.71480525 1.90493508 8.26336585 1.90039392 4.8125 1.9375 C3.72582031 1.94652344 2.63914062 1.95554688 1.51953125 1.96484375 C0.68808594 1.97644531 -0.14335937 1.98804688 -1 2 C-0.67 1.34 -0.34 0.68 0 0 Z " fill="#3362A3" transform="translate(325,203)"/>
<path d="M0 0 C0.93423645 3.01031744 1.04449911 3.86650268 0 7 C0 7.99 0 8.98 0 10 C2.31 10 4.62 10 7 10 C7 10.33 7 10.66 7 11 C3.04 11 -0.92 11 -5 11 C-3.77472971 6.94718288 -2.30119506 3.55639236 0 0 Z " fill="#2C67B2" transform="translate(300,247)"/>
<path d="M0 0 C0.66 0 1.32 0 2 0 C2 3.3 2 6.6 2 10 C-0.475 9.01 -0.475 9.01 -3 8 C-3 6.68 -3 5.36 -3 4 C-2.34 4 -1.68 4 -1 4 C-0.67 2.68 -0.34 1.36 0 0 Z " fill="#306BB3" transform="translate(223,262)"/>
<path d="M0 0 C0.66 0 1.32 0 2 0 C2 3.3 2 6.6 2 10 C-1.375 10.1875 -1.375 10.1875 -5 10 C-5.66 9.01 -6.32 8.02 -7 7 C-5.68 6.67 -4.36 6.34 -3 6 C-3 6.66 -3 7.32 -3 8 C-2.01 8 -1.02 8 0 8 C0 5.36 0 2.72 0 0 Z " fill="#3167B0" transform="translate(277,210)"/>
<path d="M0 0 C0.33 0 0.66 0 1 0 C1 1.98 1 3.96 1 6 C1.99 6.33 2.98 6.66 4 7 C3.67 9.64 3.34 12.28 3 15 C2.34 15 1.68 15 1 15 C-1.25495121 10.49009758 -1.2430836 6.94269981 -1 2 C-0.67 1.34 -0.34 0.68 0 0 Z " fill="#3068B7" transform="translate(257,195)"/>
<path d="M0 0 C0.556875 0.391875 1.11375 0.78375 1.6875 1.1875 C1.6875 2.5075 1.6875 3.8275 1.6875 5.1875 C1.0275 5.1875 0.3675 5.1875 -0.3125 5.1875 C-0.3125 4.1975 -0.3125 3.2075 -0.3125 2.1875 C-1.3025 2.8475 -2.2925 3.5075 -3.3125 4.1875 C-4.3025 4.1875 -5.2925 4.1875 -6.3125 4.1875 C-6.6425 5.1775 -6.9725 6.1675 -7.3125 7.1875 C-7.625 4.875 -7.625 4.875 -7.3125 2.1875 C-3.38928019 -1.19082817 -3.38928019 -1.19082817 0 0 Z " fill="#386FB2" transform="translate(129.3125,198.8125)"/>
<path d="M0 0 C1.66611905 -0.042721 3.33382885 -0.04063832 5 0 C6 1 6 1 6.0625 3.5625 C6.041875 4.366875 6.02125 5.17125 6 6 C3.03 5.505 3.03 5.505 0 5 C0 3.35 0 1.7 0 0 Z " fill="#3F76BF" transform="translate(369,265)"/>
<path d="M0 0 C3.65316671 1.24976756 4.78065836 1.67098753 7 5 C3 5 3 5 1.25 3.625 C0 2 0 2 0 0 Z M-7 5 C-3.7 5 -0.4 5 3 5 C2.67 6.32 2.34 7.64 2 9 C1.34 8.34 0.68 7.68 0 7 C-2.32275177 6.59952556 -4.65739357 6.2602896 -7 6 C-7 5.67 -7 5.34 -7 5 Z " fill="#3165AA" transform="translate(149,235)"/>
<path d="M0 0 C0.99 0.33 1.98 0.66 3 1 C3 3.66666667 3 6.33333333 3 9 C1.35 8.67 -0.3 8.34 -2 8 C-1.34 5.36 -0.68 2.72 0 0 Z " fill="#376BAF" transform="translate(340,264)"/>
<path d="M0 0 C0 3.87851373 -0.86560376 5.76397989 -3 9 C-6.6875 10.375 -6.6875 10.375 -10 11 C-6.79239749 7.19364503 -3.59253891 3.45436433 0 0 Z " fill="#3468B2" transform="translate(139,254)"/>
<path d="M0 0 C2 2 2 2 2 6 C0.02 6.66 -1.96 7.32 -4 8 C-4 6.68 -4 5.36 -4 4 C-3.34 4 -2.68 4 -2 4 C-2 3.34 -2 2.68 -2 2 C-1.34 2 -0.68 2 0 2 C0 1.34 0 0.68 0 0 Z " fill="#2467C4" transform="translate(81,258)"/>
<path d="M0 0 C2.0625 0.4375 2.0625 0.4375 4 1 C4 2.32 4 3.64 4 5 C1.69 5 -0.62 5 -3 5 C-1.125 1.125 -1.125 1.125 0 0 Z " fill="#2564C6" transform="translate(287,249)"/>
<path d="M0 0 C0.66 0.33 1.32 0.66 2 1 C1.625 2.9375 1.625 2.9375 1 5 C0.01 5.495 0.01 5.495 -1 6 C-1 7.65 -1 9.3 -1 11 C-1.99 10.67 -2.98 10.34 -4 10 C-3.51171875 3.9453125 -3.51171875 3.9453125 -3 2 C-2.01 1.34 -1.02 0.68 0 0 Z " fill="#2268C9" transform="translate(106,203)"/>
<path d="M0 0 C0.99 0 1.98 0 3 0 C3.12375 0.61875 3.2475 1.2375 3.375 1.875 C3.87197356 4.19120832 3.87197356 4.19120832 6 6 C5.625 8.125 5.625 8.125 5 10 C4.34 10 3.68 10 3 10 C0 3.375 0 3.375 0 0 Z " fill="#2166C6" transform="translate(110,225)"/>
<path d="M0 0 C1.65 0 3.3 0 5 0 C3.125 5.75 3.125 5.75 2 8 C1.34 8 0.68 8 0 8 C-1.125 2.25 -1.125 2.25 0 0 Z " fill="#366EBB" transform="translate(323,218)"/>
<path d="M0 0 C1.23556641 0.01740234 1.23556641 0.01740234 2.49609375 0.03515625 C3.32238281 0.04417969 4.14867187 0.05320313 5 0.0625 C5.63808594 0.07410156 6.27617187 0.08570313 6.93359375 0.09765625 C6.93359375 1.74765625 6.93359375 3.39765625 6.93359375 5.09765625 C6.27359375 4.76765625 5.61359375 4.43765625 4.93359375 4.09765625 C5.26359375 3.10765625 5.59359375 2.11765625 5.93359375 1.09765625 C4.61359375 1.09765625 3.29359375 1.09765625 1.93359375 1.09765625 C1.60359375 2.08765625 1.27359375 3.07765625 0.93359375 4.09765625 C0.60359375 3.43765625 0.27359375 2.77765625 -0.06640625 2.09765625 C-2.39716554 3.05631134 -2.39716554 3.05631134 -4.06640625 6.09765625 C-2.99738005 0.14165312 -2.99738005 0.14165312 0 0 Z " fill="#2A65B7" transform="translate(368.06640625,203.90234375)"/>
<path d="M0 0 C2.97 0.33 5.94 0.66 9 1 C9 1.33 9 1.66 9 2 C6.36 2 3.72 2 1 2 C1.66 3.65 2.32 5.3 3 7 C1.35 6.67 -0.3 6.34 -2 6 C-2.33 5.01 -2.66 4.02 -3 3 C-2.01 3 -1.02 3 0 3 C0 2.01 0 1.02 0 0 Z " fill="#2D63AF" transform="translate(109,223)"/>
<path d="M0 0 C2.125 0.9375 2.125 0.9375 4 2 C4 2.66 4 3.32 4 4 C4.66 4 5.32 4 6 4 C6 4.66 6 5.32 6 6 C4.35 5.67 2.7 5.34 1 5 C1 4.34 1 3.68 1 3 C0.01 3 -0.98 3 -2 3 C-2 2.34 -2 1.68 -2 1 C-1.34 0.67 -0.68 0.34 0 0 Z " fill="#1F67C8" transform="translate(82,275)"/>
<path d="M0 0 C0.99 0 1.98 0 3 0 C3.66 1.32 4.32 2.64 5 4 C4.34 4 3.68 4 3 4 C3 4.99 3 5.98 3 7 C1.0625 6.6875 1.0625 6.6875 -1 6 C-1.33 5.01 -1.66 4.02 -2 3 C-1.34 2.67 -0.68 2.34 0 2 C0 1.34 0 0.68 0 0 Z " fill="#3D77BF" transform="translate(281,265)"/>
<path d="M0 0 C-5 1.66666667 -10 3.33333333 -15 5 C-14 2 -14 2 -12.3125 0.875 C-7.96138035 -0.7713696 -4.46557035 -1.28000185 0 0 Z " fill="#4876B4" transform="translate(273,190)"/>
<path d="M0 0 C3.40312738 1.05875074 6.01353231 2.00902154 9 4 C8.67 4.99 8.34 5.98 8 7 C4.2047869 5.50902342 2.38957269 3.24299151 0 0 Z " fill="#4074B7" transform="translate(192,253)"/>
<path d="M0 0 C0.99 0 1.98 0 3 0 C3 0.66 3 1.32 3 2 C2.34 2 1.68 2 1 2 C1.33 5.63 1.66 9.26 2 13 C1.34 13 0.68 13 0 13 C-2.21474076 7.95531271 -1.85072153 5.14089313 0 0 Z " fill="#3C72B3" transform="translate(267,197)"/>
<path d="M0 0 C0.66 0.66 1.32 1.32 2 2 C1.7578125 4.6015625 1.7578125 4.6015625 1.125 7.625 C0.81949219 9.12933594 0.81949219 9.12933594 0.5078125 10.6640625 C0.34023438 11.43492187 0.17265625 12.20578125 0 13 C-0.66 13 -1.32 13 -2 13 C-1.85769192 11.58297487 -1.71099254 10.1663904 -1.5625 8.75 C-1.48128906 7.96109375 -1.40007812 7.1721875 -1.31640625 6.359375 C-1.02365007 4.17635361 -0.57935581 2.1226818 0 0 Z " fill="#3267AB" transform="translate(363,211)"/>
<path d="M0 0 C1.65 0 3.3 0 5 0 C4.01 0.495 4.01 0.495 3 1 C3 1.66 3 2.32 3 3 C3.99 3 4.98 3 6 3 C6 3.99 6 4.98 6 6 C4.35 5.67 2.7 5.34 1 5 C0.67 3.35 0.34 1.7 0 0 Z " fill="#477BBD" transform="translate(256,267)"/>
<path d="M0 0 C0.66 0.33 1.32 0.66 2 1 C2.625 4.0625 2.625 4.0625 3 7 C1.02 7.66 -0.96 8.32 -3 9 C-2.4140625 2.84765625 -2.4140625 2.84765625 -2 1 C-1.34 0.67 -0.68 0.34 0 0 Z " fill="#3165B0" transform="translate(244,235)"/>
<path d="M0 0 C0 1.65 0 3.3 0 5 C0.66 5 1.32 5 2 5 C2 5.99 2 6.98 2 8 C0.68 8.33 -0.64 8.66 -2 9 C-2.33 6.36 -2.66 3.72 -3 1 C-1 0 -1 0 0 0 Z " fill="#396DBC" transform="translate(102,217)"/>
<path d="M0 0 C0.99 0.33 1.98 0.66 3 1 C3 1.99 3 2.98 3 4 C5.64 4 8.28 4 11 4 C11 4.33 11 4.66 11 5 C7.37 5 3.74 5 0 5 C0 3.35 0 1.7 0 0 Z " fill="#2864B3" transform="translate(354,253)"/>
<path d="M0 0 C1.32 0.33 2.64 0.66 4 1 C4.33 2.32 4.66 3.64 5 5 C3.0625 5.5625 3.0625 5.5625 1 6 C0 5 0 5 -0.0625 2.4375 C-0.041875 1.633125 -0.02125 0.82875 0 0 Z " fill="#3972BA" transform="translate(294,267)"/>
<path d="M0 0 C-0.66 1.65 -1.32 3.3 -2 5 C-2.99 5 -3.98 5 -5 5 C-5.33 3.68 -5.66 2.36 -6 1 C-3 0 -3 0 0 0 Z " fill="#3D77BC" transform="translate(240,264)"/>
<path d="M0 0 C1.65 0 3.3 0 5 0 C4.1875 2.4375 4.1875 2.4375 3 5 C2.01 5.33 1.02 5.66 0 6 C0 4.02 0 2.04 0 0 Z " fill="#2067C2" transform="translate(84,252)"/>
<path d="M0 0 C1.32 0 2.64 0 4 0 C2.25 4.875 2.25 4.875 0 6 C0 5.01 0 4.02 0 3 C-0.66 2.67 -1.32 2.34 -2 2 C-1.34 1.34 -0.68 0.68 0 0 Z " fill="#2B65BC" transform="translate(307,250)"/>
<path d="M0 0 C0.99 0.33 1.98 0.66 3 1 C3 2.65 3 4.3 3 6 C1.35 5.67 -0.3 5.34 -2 5 C-2 4.34 -2 3.68 -2 3 C-1.34 3 -0.68 3 0 3 C0 2.01 0 1.02 0 0 Z " fill="#2C6AC6" transform="translate(234,267)"/>
<path d="M0 0 C0 1.32 0 2.64 0 4 C-0.99 4.33 -1.98 4.66 -3 5 C-3.99 4.34 -4.98 3.68 -6 3 C-3.375 0 -3.375 0 0 0 Z " fill="#2067C3" transform="translate(148,250)"/>
<path d="M0 0 C-0.99 0.495 -0.99 0.495 -2 1 C-2.33 1.99 -2.66 2.98 -3 4 C-4.65 3.67 -6.3 3.34 -8 3 C-5.45189726 -0.82215411 -4.39145359 -1.46381786 0 0 Z " fill="#2465C7" transform="translate(125,223)"/>
<path d="M0 0 C0.33 0 0.66 0 1 0 C1 1.98 1 3.96 1 6 C-0.32 6.33 -1.64 6.66 -3 7 C-3.33 6.01 -3.66 5.02 -4 4 C-2.68 3.67 -1.36 3.34 0 3 C0 2.01 0 1.02 0 0 Z " fill="#2B61A9" transform="translate(196,266)"/>
<path d="M0 0 C0 0.66 0 1.32 0 2 C-0.66 2 -1.32 2 -2 2 C-2.33 2.99 -2.66 3.98 -3 5 C-4.32 5 -5.64 5 -7 5 C-7 3 -7 3 -5.75 1.375 C-4 0 -4 0 0 0 Z " fill="#2F6DBF" transform="translate(366,266)"/>
<path d="M0 0 C1.98 0 3.96 0 6 0 C4.02 0.99 4.02 0.99 2 2 C2 3.32 2 4.64 2 6 C1.34 6 0.68 6 0 6 C0 4.02 0 2.04 0 0 Z " fill="#2C6BB9" transform="translate(198,266)"/>
<path d="M0 0 C1.67542976 0.28604898 3.34385343 0.61781233 5 1 C4.01 2.485 4.01 2.485 3 4 C2.01 4 1.02 4 0 4 C-0.33 3.01 -0.66 2.02 -1 1 C-0.67 0.67 -0.34 0.34 0 0 Z " fill="#3271CA" transform="translate(307,267)"/>
<path d="M0 0 C1.24546405 2.49092811 0.7767578 3.41080733 0 6 C0.66 6 1.32 6 2 6 C2 6.66 2 7.32 2 8 C-0.475 7.01 -0.475 7.01 -3 6 C-1.125 1.125 -1.125 1.125 0 0 Z " fill="#3866A7" transform="translate(73,267)"/>
<path d="M0 0 C2.97 0 5.94 0 9 0 C9 0.33 9 0.66 9 1 C6.69 1 4.38 1 2 1 C2 1.99 2 2.98 2 4 C1.01 4 0.02 4 -1 4 C-0.67 2.68 -0.34 1.36 0 0 Z " fill="#2B6ABA" transform="translate(268,210)"/>
</svg>
